HIERARCHY
ROOT Hips
{
  OFFSET 0 0 0
  CHANNELS 6 Xposition Yposition Zposition Zrotation Yrotation Xrotation
  JOINT LeftThigh
  {
    OFFSET 8.409438 0 -5.917753
    CHANNELS 3 Zrotation Yrotation Xrotation
    JOINT LeftLeg
    {
      OFFSET 0 0 -42.358652
      CHANNELS 3 Zrotation Yrotation Xrotation
      JOINT LeftFoot
      {
        OFFSET 0 0 -39.357303
        CHANNELS 3 Zrotation Yrotation Xrotation
      }
    }
  }
  JOINT RightThigh
  {
    OFFSET -8.409438 0 -5.917753
    CHANNELS 3 Zrotation Yrotation Xrotation
    JOINT RightLeg
    {
      OFFSET 0 0 -42.358652
      CHANNELS 3 Zrotation Yrotation Xrotation
      JOINT RightFoot
      {
        OFFSET 0 0 -39.357303
        CHANNELS 3 Zrotation Yrotation Xrotation
      }
    }
  }
  JOINT SpineLow
  {
    OFFSET 0 0 4.719101
    CHANNELS 3 Zrotation Yrotation Xrotation
    JOINT SpineMid
    {
      OFFSET 0 0 12.899191
      CHANNELS 3 Zrotation Yrotation Xrotation
      JOINT Chest
      {
        OFFSET 0 0 12.899191
        CHANNELS 3 Zrotation Yrotation Xrotation
        JOINT LeftShoulder
        {
          OFFSET 7.550562 1.41573 9.438202
          CHANNELS 3 Zrotation Yrotation Xrotation
          JOINT LeftArm
          {
            OFFSET 9.155056 0 4.247191
            CHANNELS 3 Zrotation Yrotation Xrotation
            JOINT LeftForearm
            {
              OFFSET 0 0 25.771955
              CHANNELS 3 Zrotation Yrotation Xrotation
              JOINT LeftHand
              {
                OFFSET 0 0 25.197169
                CHANNELS 3 Zrotation Yrotation Xrotation
              }
            }
          }
        }
        JOINT RightShoulder
        {
          OFFSET -7.550562 1.41573 9.438202
          CHANNELS 3 Zrotation Yrotation Xrotation
          JOINT RightArm
          {
            OFFSET -9.155056 0 4.247191
            CHANNELS 3 Zrotation Yrotation Xrotation
            JOINT RightForearm
            {
              OFFSET 0 0 -25.771955
              CHANNELS 3 Zrotation Yrotation Xrotation
              JOINT RightHand
              {
                OFFSET 0 0 -25.197169
                CHANNELS 3 Zrotation Yrotation Xrotation
              }
            }
          }
        }
        JOINT Neck
        {
          OFFSET 0 0 15.101124
          CHANNELS 3 Zrotation Yrotation Xrotation
          JOINT Head
          {
            OFFSET 0 0 11.325843
            CHANNELS 3 Zrotation Yrotation Xrotation
            End Site
            {
              OFFSET 0 0 14.157303
            }
          }
        }
      }
    }
  }
}
MOTION
Frames: 17
Frame Time: 0.0
0.0  93.25843  0.0  7.69115  21.833164  -79.700861  -11.322254  -9.511685  -22.229283  -10.568245  0.322242  18.474104  5.49853  -0.683099  5.958243  -32.578679  4.414039  -17.039384  -18.258584  11.403214  13.228766  5.011165  2.51064  -0.717331  2.496111  2.021496  -0.782616  6.77143  5.599041  -1.931927  6.77143  5.599041  -1.931927  3.657542  1.251881  14.392297  178.036757  17.372412  -161.184429  -3.671908  11.488085  99.835852  58.086576  -32.799809  6.070265  35.396103  -24.132852  23.918414  -178.565271  81.519997  177.635339  -1.314486  30.342279  -43.198674  88.61968  -33.770215  25.217613  -22.91285  -3.305658  0.384802  -17.177784  -2.497845  0.164638  
0.0  93.25843  0.0  7.93901  22.029822  -79.611429  -10.98885  -9.225105  -22.718209  -10.895673  0.788926  19.278467  5.377366  -0.665084  5.845808  -32.445071  4.205016  -17.532397  -18.416903  12.541733  14.069572  5.19651  2.64871  -0.861078  2.57596  2.083008  -0.762577  6.990859  5.766992  -1.863895  6.990859  5.766992  -1.863895  4.014289  0.924609  14.196422  178.287557  17.331963  -161.434978  -3.190476  11.218721  100.280429  58.172236  -32.795031  6.183574  35.591512  -24.205615  23.574821  -171.507173  81.911332  -174.968767  -1.379951  28.889427  -43.20437  88.105308  -33.786483  25.510078  -23.369785  -3.382446  0.445937  -17.519776  -2.558336  0.205125  
0.0  93.25843  0.0  8.469961  22.686908  -79.176524  -11.411522  -8.97865  -23.567913  -10.915968  1.337296  20.267919  5.540908  -0.596561  5.97945  -33.02337  3.984853  -18.344963  -17.889651  13.69041  15.074206  5.40148  2.790593  -1.003822  2.520962  2.197427  -0.771786  6.837476  6.078864  -1.882417  6.837475  6.078864  -1.882417  4.865816  0.123956  13.761652  178.193833  17.031972  -161.764656  -2.634652  10.933894  100.766231  58.172747  -32.891748  6.345902  36.117776  -24.419734  23.295444  -162.302555  82.258239  -165.276405  -1.843839  27.559705  -43.780141  87.552595  -33.885392  25.823002  -23.602013  -3.522943  0.541154  -17.692814  -2.66784  0.269891  
0.0  93.25843  0.0  8.702428  22.679431  -79.147597  -11.206588  -8.844993  -23.95879  -11.04577  1.978674  21.053226  5.500073  -0.579005  5.861964  -33.163877  3.768282  -18.886552  -17.509549  14.648429  15.985732  5.535042  2.959216  -1.154601  2.597456  2.265633  -0.747161  7.0484  6.26442  -1.80079  7.0484  6.26442  -1.80079  5.013077  -0.192924  13.470908  178.682384  16.981338  -161.856155  -2.098247  10.688247  101.290572  57.998821  -33.10261  6.652471  36.12378  -24.478864  22.955881  -153.538027  82.605107  -156.245478  -2.814822  26.073042  -44.993938  86.898082  -33.989939  26.111252  -23.970355  -3.630368  0.563727  -17.968404  -2.749919  0.280477  
0.0  93.25843  0.0  8.97865  22.714999  -79.106403  -11.627775  -8.752364  -24.641332  -10.604638  2.547998  22.260358  5.15308  -0.583068  5.480731  -33.570664  3.592975  -19.456508  -16.85773  15.515017  16.930574  6.073271  3.321573  -1.271339  2.607141  2.342665  -0.738403  7.074748  6.473997  -1.767832  7.074747  6.473996  -1.767832  5.380865  -0.497223  13.221851  179.185072  16.943039  -161.835141  -1.639008  10.577028  101.825608  57.649356  -33.326827  7.244508  36.350391  -24.732404  22.657867  -144.651258  82.810964  -147.089254  -4.33909  24.211773  -46.761481  86.042708  -33.836909  26.352891  -24.125173  -3.738685  0.602513  -18.083776  -2.83305  0.30438  
0.0  93.25843  0.0  9.144617  22.454531  -79.244337  -11.398819  -8.538182  -24.858976  -10.499123  3.026114  23.10577  5.016469  -0.55894  5.325239  -33.820142  3.472157  -19.921938  -16.263127  16.274456  17.834296  6.234921  3.489385  -1.436051  2.672854  2.387638  -0.708638  7.257323  6.595078  -1.674988  7.257323  6.595078  -1.674987  5.475264  -0.500565  13.013244  179.767682  16.950932  -161.582027  -1.287147  10.537018  102.293519  57.085527  -33.502283  8.182545  36.275359  -24.783771  22.380313  -135.925847  83.111597  -138.249243  -6.368921  21.837119  -49.012381  84.968612  -33.320984  26.584537  -24.291276  -3.785647  0.558423  -18.208367  -2.866818  0.268365  
0.0  93.25843  0.0  9.298212  22.041276  -79.421051  -11.178745  -8.201902  -25.031565  -10.205883  3.373052  24.041088  4.915269  -0.571706  5.188388  -34.000662  3.417806  -20.372606  -15.597581  16.969557  18.729826  6.432418  3.661253  -1.59998  2.706917  2.425343  -0.68472  7.352751  6.696111  -1.601948  7.35275  6.696111  -1.601947  6.409761  -0.750278  12.773152  179.53916  16.705664  -161.143125  -1.04894  10.484245  102.680561  56.446742  -33.537745  9.327505  36.387816  -24.893754  22.19262  -127.178487  83.34885  -129.435996  -8.726489  18.93183  -51.637879  83.787471  -32.410934  26.787092  -24.255196  -3.809574  0.485531  -18.18166  -2.881847  0.21288  
0.0  93.25843  0.0  9.403831  21.30408  -79.663505  -10.571902  -7.822257  -25.026001  -10.137012  3.634839  24.727316  4.865032  -0.548856  5.100041  -33.890035  3.391606  -20.827676  -14.972381  17.587201  19.641229  6.552261  3.839225  -1.765914  2.770305  2.46304  -0.652123  7.529599  6.796649  -1.501971  7.529599  6.796648  -1.501971  6.631693  -0.561226  12.477119  179.900262  16.665521  -160.483244  -0.903481  10.404135  103.050624  55.929931  -33.406968  10.370735  36.446465  -25.009636  21.993494  -118.528512  83.560966  -120.825164  -11.186431  15.579559  -54.509638  82.693233  -31.154193  26.939597  -24.153512  -3.854098  0.372682  -18.105937  -2.910705  0.126977  
0.0  93.25843  0.0  9.545897  20.286447  -79.897742  -9.984953  -7.241278  -25.111751  -9.943964  3.70505  25.53963  4.434359  -0.514107  4.722403  -33.533586  3.401481  -21.38239  -14.251255  18.204387  20.618187  6.59157  4.03791  -1.946757  2.844665  2.511608  -0.627172  7.735821  6.927745  -1.420313  7.73582  6.927745  -1.420312  6.846305  -0.378735  12.152674  -179.884124  16.59813  -159.640613  -0.766903  10.24636  103.445728  55.758368  -33.26234  11.079406  36.459262  -25.140869  21.865727  -109.896199  83.742731  -112.344055  -13.53041  11.971958  -57.58075  81.743056  -29.725092  26.958464  -23.979265  -3.89231  0.269632  -17.975794  -2.935179  0.049167  
0.0  93.25843  0.0  9.696825  18.909281  -80.162999  -8.686471  -6.557702  -24.787657  -10.093258  3.722957  26.013085  4.195783  -0.41069  4.520781  -32.880867  3.416747  -21.9782  -13.525914  18.83417  21.591887  6.611068  4.201876  -2.15137  2.940376  2.57017  -0.604766  8.00047  7.086585  -1.341812  8.00047  7.086585  -1.341812  6.983217  -0.186361  11.833489  -179.719431  16.554037  -158.60712  -0.602226  9.988694  103.891736  56.006399  -33.288676  11.481799  36.384022  -25.257247  21.773629  -101.161112  83.961134  -103.931803  -15.601198  8.307852  -60.840947  80.791434  -28.253254  27.001973  -23.693504  -3.942065  0.174893  -17.761967  -2.968626  -0.022101  
0.0  93.25843  0.0  9.900485  17.094139  -80.428521  -7.182874  -5.790019  -24.374257  -10.244134  3.706709  26.333197  3.71083  -0.303303  4.155259  -31.878378  3.444934  -22.618691  -12.681772  19.42075  22.470826  7.363386  4.69873  -2.200874  3.059125  2.62996  -0.603979  8.326158  7.251602  -1.319321  8.326158  7.251602  -1.319321  7.054213  0.028743  11.583957  -179.520699  16.488053  -157.434965  -0.404045  9.736399  104.412489  56.461483  -33.504957  11.847245  36.133363  -25.267514  21.893254  -91.520767  84.309618  -94.929391  -17.356542  4.656524  -64.189391  79.760181  -26.811484  27.259914  -23.283189  -3.914484  0.108649  -17.454878  -2.945075  -0.068128  
0.0  93.25843  0.0  10.19559  14.844775  -80.756047  -5.558294  -4.963442  -23.790624  -10.248068  3.668647  26.572511  3.615708  -0.189905  4.040206  -30.705851  3.528417  -23.27035  -11.617888  19.861066  23.281412  7.376165  4.827372  -2.267455  3.194924  2.706204  -0.607376  8.698299  7.462223  -1.303603  8.698299  7.462223  -1.303603  7.03064  0.222757  11.334859  -179.202652  16.394019  -156.096823  -0.265546  9.586553  104.93661  56.660447  -33.803701  12.631207  35.730344  -25.181703  22.154606  -80.059453  84.792949  -84.5706  -18.852506  1.065256  -67.546955  78.474536  -25.417969  27.671949  -22.725871  -3.875523  0.07768  -17.037388  -2.914312  -0.086331  
0.0  93.25843  0.0  10.460668  12.285135  -81.201191  -4.161844  -4.330129  -23.066245  -9.977084  3.709232  26.70524  3.46257  -0.114164  3.837996  -29.624167  3.587597  -23.86002  -10.51169  20.175113  23.939171  7.476144  4.989622  -2.337767  3.337081  2.778942  -0.606063  9.088633  7.66265  -1.273834  9.088634  7.662651  -1.273834  6.820452  0.461941  11.061788  -178.752986  16.363157  -154.598034  -0.311914  9.63455  105.452503  56.33446  -34.017999  14.010246  35.061888  -25.08829  22.382536  -65.888146  85.535841  -72.049488  -20.106719  -2.525286  -70.830227  76.970215  -23.926468  28.095924  -22.04058  -3.841606  0.047177  -16.523925  -2.887361  -0.103627  
0.0  93.25843  0.0  10.705664  9.527523  -81.668077  -3.128805  -3.948486  -22.304017  -9.281413  3.760707  26.794178  3.637446  -0.056274  3.844431  -28.769092  3.647836  -24.511357  -9.386238  20.365328  24.448489  7.687032  5.119424  -2.362836  3.456697  2.826057  -0.630212  9.41421  7.796335  -1.319255  9.414209  7.796336  -1.319255  6.458309  0.884114  10.908599  -178.104642  16.437992  -152.895492  -0.511707  9.883045  106.01216  55.633552  -33.980288  15.78762  34.13931  -24.873498  22.903614  -45.032516  86.182976  -53.431168  -21.070301  -6.268001  -74.051729  75.361737  -22.153917  28.397649  -21.167834  -3.717753  0.03704  -15.870061  -2.793573  -0.101394  
0.0  93.25843  0.0  10.913091  6.569036  -82.096805  -2.401452  -3.76806  -21.523455  -8.198717  3.757205  26.781033  3.793886  0.064135  3.845318  -27.968024  3.697604  -25.220395  -8.327242  20.464339  24.764758  8.126937  5.133578  -2.294981  3.519116  2.841717  -0.688511  9.578626  7.848398  -1.469204  9.578627  7.848398  -1.469203  6.255228  1.605828  10.886828  -177.349382  16.689202  -150.840738  -0.807688  10.130045  106.639581  54.988133  -33.738085  17.59985  33.279315  -24.636895  23.60661  -17.153453  86.428661  -28.223228  -21.573042  -10.212196  -77.264887  73.615783  -19.978893  28.536565  -19.961821  -3.501678  0.031892  -14.96651  -2.630629  -0.090776  
0.0  93.25843  0.0  11.110781  3.260105  -82.571953  -1.672685  -3.635674  -20.660098  -6.898589  3.660461  26.656516  4.100435  0.163004  3.929961  -26.916586  3.789916  -25.930642  -7.299656  20.38772  25.028259  8.60684  5.098757  -2.217033  3.571565  2.854444  -0.745354  9.715784  7.892326  -1.616702  9.715784  7.892327  -1.616702  5.974577  2.580794  10.85984  -176.444489  17.277358  -148.417279  -1.200015  10.179459  107.359049  54.733822  -33.558033  19.185439  32.348654  -24.270974  24.26039  11.805843  85.905747  -2.427494  -21.440883  -14.462793  -80.429243  72.061394  -17.291355  28.384238  -18.4943  -3.297002  0.004665  -13.866863  -2.475581  -0.096531  
0.0  93.25843  0.0  11.353198  -0.458376  -83.059552  -0.735686  -3.382386  -19.692843  -5.489243  3.41719  26.360901  4.558066  0.271753  4.062825  -25.501578  3.913528  -26.683368  -6.204262  20.075434  25.326798  8.942921  5.133066  -2.160335  3.658665  2.892004  -0.817157  9.946113  8.007171  -1.797199  9.946113  8.007172  -1.797199  5.485753  3.139119  10.584312  -175.684602  17.829113  -146.06983  -1.633797  9.950855  108.181328  55.02923  -33.610752  20.409738  31.290221  -24.006757  24.747398  34.669246  84.698031  17.031531  -20.64219  -18.936479  -83.524635  70.750324  -14.165153  27.812562  -16.887338  -3.138113  0.046819  -12.66209  -2.357012  -0.05177  
